# xmcd
#
# Track frame offsets: 
#        150
#        26314
#        46651
#        68590
#        85876
#        106256
#        127940
#        145669
#        170739
#        186362
#        206412
#        223552
#        239942
#        257292
#        283948
#        299590
#
# Disc length: 4345 seconds
#
# Revision: 0
# Processed by: cddbd v1.5.2PL0 Copyright (c) Steve Scherf et al.
# Submitted via: ExactAudioCopy v0.99pb5
#
DISCID=ec10f710
DTITLE=Various Artist - Billboard 1979
DYEAR=2000
DGENRE=Other
TTITLE0=Dire Straits - Sultans of Swing
TTITLE1=Kiss - I Was Made for Lovin' You
TTITLE2=The Knack - My Sharona
TTITLE3=KC and the Sunshine Band - Please Don't Go
TTITLE4=Electric Light Orchestra - Last Train to London
TTITLE5=Ottawan - Hands Up
TTITLE6=Toto - Hold the Line
TTITLE7=Pink Floyd - Another Brick in the Wall
TTITLE8=Pat Benatar - Heartbreaker
TTITLE9=Styx - Babe
TTITLE10=Supertramp - The Logical Song
TTITLE11=Cheap Trick - I Want You to Want Me
TTITLE12=Donna Summer - Hot Stuff
TTITLE13=Jackie - Under Fire
TTITLE14=OMD - Electricity
TTITLE15=Led Zeppelin - All My Love
EXTD=
EXTT0=
EXTT1=
EXTT2=
EXTT3=
EXTT4=
EXTT5=
EXTT6=
EXTT7=
EXTT8=
EXTT9=
EXTT10=
EXTT11=
EXTT12=
EXTT13=
EXTT14=
EXTT15=
PLAYORDER=
